# xmcd
#
# Track frame offsets:
#	183
#	12108
#	23473
#	35793
#	48560
#	59723
#	70593
#	82843
#	92578
#	104075
#	116463
#	128670
#	142615
#	154018
#
# Disc length: 2184 seconds
#
# Revision: 419702115
# Processed by: cddbd v1.5.2PL0 Copyright (c) Steve Scherf et al.
# Submitted via: EZCDAudioConverter 8.3.2.1
#
DISCID=aa08860e
DTITLE=GEORGE JONES - THE COLLECTION
DYEAR=1990
DGENRE=Country
TTITLE0=SHE THINKS I STILL CARE
TTITLE1=YOU WIN AGAIN
TTITLE2=A GIRL I USED TO KNOW
TTITLE3=SAN ANTONIO ROSE
TTITLE4=BLUE MOON OF KENTUCKY
TTITLE5=TAKE THESE CHAINS FROM MY HEART
TTITLE6=OUT OF OUR MINDS (WE MUST HAVE BEEN)
TTITLE7=THE RACE IS ON
TTITLE8=YOUR CHEATIN' HEART
TTITLE9=BROWN TO BLUE
TTITLE10=FADED LOVE
TTITLE11=GIVE MY LOVE TO ROSE
TTITLE12=BIG FOOL OF THE YEAR
TTITLE13=LET'S INVITE THEM OVER
EXTD=
EXTT0=
EXTT1=
EXTT2=
EXTT3=
EXTT4=
EXTT5=
EXTT6=
EXTT7=
EXTT8=
EXTT9=
EXTT10=
EXTT11=
EXTT12=
EXTT13=
PLAYORDER=
